<svg id="Layer_1" data-name="Layer 1" xmlns="http://www.w3.org/2000/svg" width="1443.79" height="361.67" viewBox="0 0 1443.79 361.67"><path d="M1308,39.3,709.72,28.14c-9.25,1.22-24.74,1.11-34.74.91-11.72.16-23.42-.27-35.17.65-16.55,1.31-33.1-.72-49.71.68-17.28,1.45-34.59-.8-51.94.67-16.73,1.41-33.48-.76-50.27.67s-33.47-.78-50.27.68-33.47-.74-50.26.66c-17.29,1.45-34.6-.79-51.95.69-16.54,1.4-33.1-.76-49.71.66-16.91,1.44-33.84-.73-50.82.68s-34.22-.79-51.39.67c-16.72,1.41-33.47-.78-50.26.67s-33.5.07-50.26.49q-34.06.87-68.17.87c-6.79,0-6.79,0-5.28,9.53L44.29,268.41c2.18,13.92,2.17,13.9,12.55,13,1.86-.16,3.72,0,5.59,0,22.51.28,45-1.16,67.54-1.71q38.52-.94,77-1.86,35.44-.88,70.9-1.87c24.93-.69,49.87-1.22,74.8-1.85,24-.61,48-1.29,72-1.86,26.61-.63,53.22-1.34,79.84-1.87,22.51-.45,45-1.29,67.54-1.87q37.95-1,75.92-1.86c23.63-.58,47.27-1.26,70.9-1.86,25.68-.66,51.36-.92,77-1.9,13.2-.5,26.42-.25,39.58,2,14.91,2.54,29.92,4,44.87,6.19,15.12,2.18,30.22,4.73,45.34,6.9,15,2.15,29.93,3.94,44.88,6.05,16.05,2.26,32.08,4.75,48.13,7.07,10.15,1.47,20.32,2.73,30.47,4.21,15.3,2.24,30.59,4.68,45.9,6.88,14.77,2.12,29.55,4,44.32,6.08,15.68,2.24,31.34,4.71,47,7,14.39,2.07,28.8,3.91,43.2,6,15.3,2.23,30.59,4.77,45.9,7,15.13,2.16,30.29,3.95,45.43,6.07,16,2.26,32.09,4.69,48.13,7.09,10.88,1.64,21.77,3.11,32.61,5.13,6.84,1.28,7.63.67,9.26-9.56,8.55-53.79,16.86-107.67,23.86-161.91,4-31.2,8-62.47,8.86-94.25.4-15.09-1-16.69-11.29-18.22-14.75-2.19-29.45-5-44.16-7.63-18.75-3.39-37.51-6.65-56.21-10.49C1324.06,42.81,1315.86,42.68,1308,39.3Z" style="fill:#edeee8"/><g id="Layer_3" data-name="Layer 3"><path d="M495.4,326.07a1450.36,1450.36,0,0,0-4.13-232.72c0,3.85-5.82-55.34-3.73-88.15" style="fill:none;stroke:#231f20;stroke-miterlimit:10"/></g><g id="Layer_3-2" data-name="Layer 3"><path d="M1006.7,355.33c-4.4-112-7.5-237-9.1-349" style="fill:none;stroke:#231f20;stroke-miterlimit:10"/></g></svg>